<svg width="24" height="24" viewBox="0 0 24 24" fill="none" xmlns="http://www.w3.org/2000/svg">
<path d="M7 13.5C7.41667 13.5 7.771 13.3543 8.063 13.063C8.355 12.7717 8.50067 12.4173 8.5 12C8.5 11.5833 8.35433 11.2293 8.063 10.938C7.77167 10.6467 7.41733 10.5007 7 10.5C6.58333 10.5 6.22933 10.646 5.938 10.938C5.64667 11.23 5.50067 11.584 5.5 12C5.5 12.4167 5.646 12.771 5.938 13.063C6.23 13.355 6.584 13.5007 7 13.5ZM12 13.5C12.4167 13.5 12.771 13.3543 13.063 13.063C13.355 12.7717 13.5007 12.4173 13.5 12C13.5 11.5833 13.3543 11.2293 13.063 10.938C12.7717 10.6467 12.4173 10.5007 12 10.5C11.5833 10.5 11.2293 10.646 10.938 10.938C10.6467 11.23 10.5007 11.584 10.5 12C10.5 12.4167 10.646 12.771 10.938 13.063C11.23 13.355 11.584 13.5007 12 13.5ZM17 13.5C17.4167 13.5 17.771 13.3543 18.063 13.063C18.355 12.7717 18.5007 12.4173 18.5 12C18.5 11.5833 18.3543 11.2293 18.063 10.938C17.7717 10.6467 17.4173 10.5007 17 10.5C16.5833 10.5 16.2293 10.646 15.938 10.938C15.6467 11.23 15.5007 11.584 15.5 12C15.5 12.4167 15.646 12.771 15.938 13.063C16.23 13.355 16.584 13.5007 17 13.5ZM12 22C10.6167 22 9.31667 21.7373 8.1 21.212C6.88333 20.6867 5.825 19.9743 4.925 19.075C4.025 18.175 3.31267 17.1167 2.788 15.9C2.26333 14.6833 2.00067 13.3833 2 12C2 10.6167 2.26267 9.31667 2.788 8.1C3.31333 6.88333 4.02567 5.825 4.925 4.925C5.825 4.025 6.88333 3.31267 8.1 2.788C9.31667 2.26333 10.6167 2.00067 12 2C13.3833 2 14.6833 2.26267 15.9 2.788C17.1167 3.31333 18.175 4.02567 19.075 4.925C19.975 5.825 20.6877 6.88333 21.213 8.1C21.7383 9.31667 22.0007 10.6167 22 12C22 13.3833 21.7373 14.6833 21.212 15.9C20.6867 17.1167 19.9743 18.175 19.075 19.075C18.175 19.975 17.1167 20.6877 15.9 21.213C14.6833 21.7383 13.3833 22.0007 12 22Z" fill="#2C2C2C" fill-opacity="0.5"/>
</svg>
