<svg width="306" height="60" viewBox="0 0 306 60" fill="none" xmlns="http://www.w3.org/2000/svg">
<path d="M0 10.08V0.28H3.22C3.98533 0.28 4.61533 0.406 5.11 0.658C5.60467 0.91 5.96867 1.25067 6.202 1.68C6.44467 2.10933 6.566 2.59467 6.566 3.136C6.566 3.668 6.44933 4.14867 6.216 4.578C5.98267 5.00733 5.61867 5.35267 5.124 5.614C4.62933 5.866 3.99467 5.992 3.22 5.992H1.176V10.08H0ZM1.176 4.998H3.192C3.976 4.998 4.53133 4.83467 4.858 4.508C5.194 4.172 5.362 3.71467 5.362 3.136C5.362 2.548 5.194 2.09067 4.858 1.764C4.53133 1.428 3.976 1.26 3.192 1.26H1.176V4.998Z" fill="#2C2C2C"/>
<path d="M10.0193 10.248C9.44063 10.248 8.95996 10.15 8.5773 9.954C8.19463 9.758 7.90996 9.49667 7.7233 9.17C7.53663 8.84333 7.4433 8.48867 7.4433 8.106C7.4433 7.39667 7.71396 6.85067 8.2553 6.468C8.79663 6.08533 9.53396 5.894 10.4673 5.894H12.3433V5.81C12.3433 5.20333 12.1846 4.746 11.8673 4.438C11.55 4.12067 11.1253 3.962 10.5933 3.962C10.136 3.962 9.7393 4.07867 9.4033 4.312C9.07663 4.536 8.8713 4.86733 8.7873 5.306H7.5833C7.62996 4.802 7.79796 4.37733 8.0873 4.032C8.38596 3.68667 8.75463 3.42533 9.1933 3.248C9.63196 3.06133 10.0986 2.968 10.5933 2.968C11.564 2.968 12.292 3.22933 12.7773 3.752C13.272 4.26533 13.5193 4.95133 13.5193 5.81V10.08H12.4693L12.3993 8.834C12.2033 9.226 11.914 9.562 11.5313 9.842C11.158 10.1127 10.654 10.248 10.0193 10.248ZM10.2013 9.254C10.6493 9.254 11.032 9.13733 11.3493 8.904C11.676 8.67067 11.9233 8.36733 12.0913 7.994C12.2593 7.62067 12.3433 7.22867 12.3433 6.818V6.804H10.5653C9.87463 6.804 9.38463 6.92533 9.0953 7.168C8.8153 7.40133 8.6753 7.69533 8.6753 8.05C8.6753 8.414 8.80596 8.708 9.0673 8.932C9.33796 9.14667 9.71596 9.254 10.2013 9.254Z" fill="#2C2C2C"/>
<path d="M17.9435 10.248C17.1128 10.248 16.4222 10.038 15.8715 9.618C15.3208 9.198 14.9988 8.62867 14.9055 7.91H16.1095C16.1842 8.274 16.3755 8.59133 16.6835 8.862C17.0009 9.12333 17.4255 9.254 17.9575 9.254C18.4522 9.254 18.8162 9.15133 19.0495 8.946C19.2829 8.73133 19.3995 8.47933 19.3995 8.19C19.3995 7.77 19.2455 7.49 18.9375 7.35C18.6389 7.21 18.2142 7.084 17.6635 6.972C17.2902 6.89733 16.9168 6.79 16.5435 6.65C16.1702 6.51 15.8575 6.314 15.6055 6.062C15.3535 5.80067 15.2275 5.46 15.2275 5.04C15.2275 4.43333 15.4515 3.93867 15.8995 3.556C16.3568 3.164 16.9729 2.968 17.7475 2.968C18.4848 2.968 19.0868 3.15467 19.5535 3.528C20.0295 3.892 20.3048 4.41467 20.3795 5.096H19.2175C19.1708 4.74133 19.0168 4.466 18.7555 4.27C18.5035 4.06467 18.1628 3.962 17.7335 3.962C17.3135 3.962 16.9869 4.05067 16.7535 4.228C16.5295 4.40533 16.4175 4.63867 16.4175 4.928C16.4175 5.208 16.5622 5.42733 16.8515 5.586C17.1502 5.74467 17.5515 5.88 18.0555 5.992C18.4848 6.08533 18.8909 6.202 19.2735 6.342C19.6655 6.47267 19.9829 6.67333 20.2255 6.944C20.4775 7.20533 20.6035 7.588 20.6035 8.092C20.6129 8.71733 20.3748 9.23533 19.8895 9.646C19.4135 10.0473 18.7648 10.248 17.9435 10.248Z" fill="#2C2C2C"/>
<path d="M24.9435 10.248C24.1128 10.248 23.4222 10.038 22.8715 9.618C22.3209 9.198 21.9988 8.62867 21.9055 7.91H23.1095C23.1842 8.274 23.3755 8.59133 23.6835 8.862C24.0009 9.12333 24.4255 9.254 24.9575 9.254C25.4522 9.254 25.8162 9.15133 26.0495 8.946C26.2829 8.73133 26.3995 8.47933 26.3995 8.19C26.3995 7.77 26.2455 7.49 25.9375 7.35C25.6389 7.21 25.2142 7.084 24.6635 6.972C24.2902 6.89733 23.9168 6.79 23.5435 6.65C23.1702 6.51 22.8575 6.314 22.6055 6.062C22.3535 5.80067 22.2275 5.46 22.2275 5.04C22.2275 4.43333 22.4515 3.93867 22.8995 3.556C23.3568 3.164 23.9729 2.968 24.7475 2.968C25.4848 2.968 26.0868 3.15467 26.5535 3.528C27.0295 3.892 27.3048 4.41467 27.3795 5.096H26.2175C26.1708 4.74133 26.0168 4.466 25.7555 4.27C25.5035 4.06467 25.1628 3.962 24.7335 3.962C24.3135 3.962 23.9869 4.05067 23.7535 4.228C23.5295 4.40533 23.4175 4.63867 23.4175 4.928C23.4175 5.208 23.5622 5.42733 23.8515 5.586C24.1502 5.74467 24.5515 5.88 25.0555 5.992C25.4848 6.08533 25.8909 6.202 26.2735 6.342C26.6655 6.47267 26.9829 6.67333 27.2255 6.944C27.4775 7.20533 27.6035 7.588 27.6035 8.092C27.6129 8.71733 27.3748 9.23533 26.8895 9.646C26.4135 10.0473 25.7648 10.248 24.9435 10.248Z" fill="#2C2C2C"/>
<path d="M30.4238 10.08L28.3938 3.136H29.5697L31.0397 8.582L32.6637 3.136H33.9938L35.6318 8.582L37.0877 3.136H38.2778L36.2478 10.08H35.0438L33.3358 4.354L31.6278 10.08H30.4238Z" fill="#2C2C2C"/>
<path d="M42.4827 10.248C41.8293 10.248 41.2413 10.0987 40.7187 9.8C40.196 9.50133 39.7807 9.08133 39.4727 8.54C39.174 7.98933 39.0247 7.34533 39.0247 6.608C39.0247 5.87067 39.1787 5.23133 39.4867 4.69C39.7947 4.13933 40.21 3.71467 40.7327 3.416C41.2647 3.11733 41.8573 2.968 42.5107 2.968C43.164 2.968 43.752 3.11733 44.2747 3.416C44.7973 3.71467 45.208 4.13933 45.5067 4.69C45.8147 5.23133 45.9687 5.87067 45.9687 6.608C45.9687 7.34533 45.8147 7.98933 45.5067 8.54C45.1987 9.08133 44.7787 9.50133 44.2467 9.8C43.724 10.0987 43.136 10.248 42.4827 10.248ZM42.4827 9.24C42.884 9.24 43.2573 9.142 43.6027 8.946C43.948 8.75 44.228 8.456 44.4427 8.064C44.6573 7.672 44.7647 7.18667 44.7647 6.608C44.7647 6.02933 44.6573 5.544 44.4427 5.152C44.2373 4.76 43.962 4.466 43.6167 4.27C43.2713 4.074 42.9027 3.976 42.5107 3.976C42.1093 3.976 41.736 4.074 41.3907 4.27C41.0453 4.466 40.7653 4.76 40.5507 5.152C40.336 5.544 40.2287 6.02933 40.2287 6.608C40.2287 7.18667 40.336 7.672 40.5507 8.064C40.7653 8.456 41.0407 8.75 41.3767 8.946C41.722 9.142 42.0907 9.24 42.4827 9.24Z" fill="#2C2C2C"/>
<path d="M47.6038 10.08V3.136H48.6678L48.7658 4.466C48.9805 4.00867 49.3072 3.64467 49.7458 3.374C50.1845 3.10333 50.7258 2.968 51.3698 2.968V4.2H51.0478C50.6372 4.2 50.2592 4.27467 49.9138 4.424C49.5685 4.564 49.2932 4.80667 49.0878 5.152C48.8825 5.49733 48.7798 5.97333 48.7798 6.58V10.08H47.6038Z" fill="#2C2C2C"/>
<path d="M55.58 10.248C54.8893 10.248 54.2827 10.0893 53.76 9.772C53.2467 9.45467 52.8453 9.02067 52.556 8.47C52.276 7.91933 52.136 7.294 52.136 6.594C52.136 5.894 52.2807 5.27333 52.57 4.732C52.8593 4.18133 53.2607 3.752 53.774 3.444C54.2873 3.12667 54.894 2.968 55.594 2.968C56.1633 2.968 56.6673 3.08467 57.106 3.318C57.5447 3.55133 57.8853 3.878 58.128 4.298V0H59.304V10.08H58.24L58.128 8.932C57.904 9.268 57.582 9.57133 57.162 9.842C56.742 10.1127 56.2147 10.248 55.58 10.248ZM55.706 9.226C56.1727 9.226 56.5833 9.11867 56.938 8.904C57.302 8.68 57.582 8.372 57.778 7.98C57.9833 7.588 58.086 7.13067 58.086 6.608C58.086 6.08533 57.9833 5.628 57.778 5.236C57.582 4.844 57.302 4.54067 56.938 4.326C56.5833 4.102 56.1727 3.99 55.706 3.99C55.2487 3.99 54.838 4.102 54.474 4.326C54.1193 4.54067 53.8393 4.844 53.634 5.236C53.438 5.628 53.34 6.08533 53.34 6.608C53.34 7.13067 53.438 7.588 53.634 7.98C53.8393 8.372 54.1193 8.68 54.474 8.904C54.838 9.11867 55.2487 9.226 55.706 9.226Z" fill="#2C2C2C"/>
<rect y="22.248" width="306" height="37.16" rx="6" fill="#F9F9F9"/>
<path d="M12 44.328V34.528H18.062V35.494H13.176V38.91H17.642V39.862H13.176V43.362H18.062V44.328H12Z" fill="#2C2C2C" fill-opacity="0.5"/>
<path d="M19.8323 44.328V37.384H20.8963L20.9663 38.63C21.1903 38.1914 21.5123 37.846 21.9323 37.594C22.3523 37.342 22.8283 37.216 23.3603 37.216C24.1817 37.216 24.835 37.468 25.3203 37.972C25.815 38.4667 26.0623 39.232 26.0623 40.268V44.328H24.8863V40.394C24.8863 38.9474 24.289 38.224 23.0943 38.224C22.497 38.224 21.9977 38.4434 21.5963 38.882C21.2043 39.3114 21.0083 39.9274 21.0083 40.73V44.328H19.8323Z" fill="#2C2C2C" fill-opacity="0.5"/>
<path d="M30.5881 44.328C29.9534 44.328 29.4541 44.174 29.0901 43.866C28.7261 43.558 28.5441 43.0027 28.5441 42.2V38.378H27.3401V37.384H28.5441L28.6981 35.718H29.7201V37.384H31.7641V38.378H29.7201V42.2C29.7201 42.6387 29.8087 42.9374 29.9861 43.096C30.1634 43.2454 30.4761 43.32 30.9241 43.32H31.6521V44.328H30.5881Z" fill="#2C2C2C" fill-opacity="0.5"/>
<path d="M36.1887 44.496C35.5261 44.496 34.9381 44.3467 34.4247 44.048C33.9114 43.74 33.5054 43.3154 33.2067 42.774C32.9174 42.2327 32.7727 41.5934 32.7727 40.856C32.7727 40.128 32.9174 39.4934 33.2067 38.952C33.4961 38.4014 33.8974 37.9767 34.4107 37.678C34.9334 37.37 35.5354 37.216 36.2167 37.216C36.8887 37.216 37.4674 37.37 37.9527 37.678C38.4474 37.9767 38.8254 38.3734 39.0867 38.868C39.3481 39.3627 39.4787 39.8947 39.4787 40.464C39.4787 40.5667 39.4741 40.6694 39.4647 40.772C39.4647 40.8747 39.4647 40.9914 39.4647 41.122H33.9347C33.9627 41.654 34.0841 42.0974 34.2987 42.452C34.5227 42.7974 34.7981 43.0587 35.1247 43.236C35.4607 43.4134 35.8154 43.502 36.1887 43.502C36.6741 43.502 37.0801 43.39 37.4067 43.166C37.7334 42.942 37.9714 42.6387 38.1207 42.256H39.2827C39.0961 42.9 38.7367 43.4367 38.2047 43.866C37.6821 44.286 37.0101 44.496 36.1887 44.496ZM36.1887 38.21C35.6287 38.21 35.1294 38.3827 34.6907 38.728C34.2614 39.064 34.0141 39.5587 33.9487 40.212H38.3167C38.2887 39.5867 38.0741 39.0967 37.6727 38.742C37.2714 38.3874 36.7767 38.21 36.1887 38.21Z" fill="#2C2C2C" fill-opacity="0.5"/>
<path d="M41.0374 44.328V37.384H42.1014L42.1994 38.714C42.4141 38.2567 42.7408 37.8927 43.1794 37.622C43.6181 37.3514 44.1594 37.216 44.8034 37.216V38.448H44.4814C44.0708 38.448 43.6928 38.5227 43.3474 38.672C43.0021 38.812 42.7268 39.0547 42.5214 39.4C42.3161 39.7454 42.2134 40.2214 42.2134 40.828V44.328H41.0374Z" fill="#2C2C2C" fill-opacity="0.5"/>
<path d="M50.5844 47.408L52.3064 43.656H51.9004L49.1424 37.384H50.4164L52.7124 42.788L55.1484 37.384H56.3664L51.8164 47.408H50.5844Z" fill="#2C2C2C" fill-opacity="0.5"/>
<path d="M60.1155 44.496C59.4622 44.496 58.8742 44.3467 58.3515 44.048C57.8288 43.7494 57.4135 43.3294 57.1055 42.788C56.8068 42.2374 56.6575 41.5934 56.6575 40.856C56.6575 40.1187 56.8115 39.4794 57.1195 38.938C57.4275 38.3874 57.8428 37.9627 58.3655 37.664C58.8975 37.3654 59.4902 37.216 60.1435 37.216C60.7968 37.216 61.3848 37.3654 61.9075 37.664C62.4302 37.9627 62.8408 38.3874 63.1395 38.938C63.4475 39.4794 63.6015 40.1187 63.6015 40.856C63.6015 41.5934 63.4475 42.2374 63.1395 42.788C62.8315 43.3294 62.4115 43.7494 61.8795 44.048C61.3568 44.3467 60.7688 44.496 60.1155 44.496ZM60.1155 43.488C60.5168 43.488 60.8902 43.39 61.2355 43.194C61.5808 42.998 61.8608 42.704 62.0755 42.312C62.2902 41.92 62.3975 41.4347 62.3975 40.856C62.3975 40.2774 62.2902 39.792 62.0755 39.4C61.8702 39.008 61.5948 38.714 61.2495 38.518C60.9042 38.322 60.5355 38.224 60.1435 38.224C59.7422 38.224 59.3688 38.322 59.0235 38.518C58.6782 38.714 58.3982 39.008 58.1835 39.4C57.9688 39.792 57.8615 40.2774 57.8615 40.856C57.8615 41.4347 57.9688 41.92 58.1835 42.312C58.3982 42.704 58.6735 42.998 59.0095 43.194C59.3548 43.39 59.7235 43.488 60.1155 43.488Z" fill="#2C2C2C" fill-opacity="0.5"/>
<path d="M67.7706 44.496C66.9493 44.496 66.296 44.2487 65.8106 43.754C65.3253 43.25 65.0826 42.48 65.0826 41.444V37.384H66.2586V41.318C66.2586 42.7647 66.8513 43.488 68.0366 43.488C68.6433 43.488 69.1426 43.2734 69.5346 42.844C69.936 42.4054 70.1366 41.7847 70.1366 40.982V37.384H71.3126V44.328H70.2486L70.1646 43.082C69.95 43.5207 69.628 43.866 69.1986 44.118C68.7786 44.37 68.3026 44.496 67.7706 44.496Z" fill="#2C2C2C" fill-opacity="0.5"/>
<path d="M73.2484 44.328V37.384H74.3124L74.4104 38.714C74.625 38.2567 74.9517 37.8927 75.3904 37.622C75.829 37.3514 76.3704 37.216 77.0144 37.216V38.448H76.6924C76.2817 38.448 75.9037 38.5227 75.5584 38.672C75.213 38.812 74.9377 39.0547 74.7324 39.4C74.527 39.7454 74.4244 40.2214 74.4244 40.828V44.328H73.2484Z" fill="#2C2C2C" fill-opacity="0.5"/>
<path d="M82.0394 47.408V37.384H83.1034L83.2154 38.532C83.4394 38.196 83.7567 37.8927 84.1674 37.622C84.5874 37.3514 85.1194 37.216 85.7634 37.216C86.454 37.216 87.056 37.3747 87.5694 37.692C88.0827 38.0094 88.4794 38.4434 88.7594 38.994C89.0487 39.5447 89.1934 40.17 89.1934 40.87C89.1934 41.57 89.0487 42.1954 88.7594 42.746C88.4794 43.2874 88.078 43.7167 87.5554 44.034C87.042 44.342 86.44 44.496 85.7494 44.496C85.18 44.496 84.6714 44.3794 84.2234 44.146C83.7847 43.9127 83.4487 43.586 83.2154 43.166V47.408H82.0394ZM85.6234 43.474C86.09 43.474 86.5007 43.3667 86.8554 43.152C87.21 42.928 87.49 42.62 87.6954 42.228C87.9007 41.836 88.0034 41.3787 88.0034 40.856C88.0034 40.3334 87.9007 39.876 87.6954 39.484C87.49 39.092 87.21 38.7887 86.8554 38.574C86.5007 38.35 86.09 38.238 85.6234 38.238C85.1567 38.238 84.746 38.35 84.3914 38.574C84.0367 38.7887 83.7567 39.092 83.5514 39.484C83.346 39.876 83.2434 40.3334 83.2434 40.856C83.2434 41.3787 83.346 41.836 83.5514 42.228C83.7567 42.62 84.0367 42.928 84.3914 43.152C84.746 43.3667 85.1567 43.474 85.6234 43.474Z" fill="#2C2C2C" fill-opacity="0.5"/>
<path d="M93.1404 44.496C92.5617 44.496 92.0811 44.398 91.6984 44.202C91.3157 44.006 91.0311 43.7447 90.8444 43.418C90.6577 43.0914 90.5644 42.7367 90.5644 42.354C90.5644 41.6447 90.8351 41.0987 91.3764 40.716C91.9177 40.3334 92.6551 40.142 93.5884 40.142H95.4644V40.058C95.4644 39.4514 95.3057 38.994 94.9884 38.686C94.6711 38.3687 94.2464 38.21 93.7144 38.21C93.257 38.21 92.8604 38.3267 92.5244 38.56C92.1977 38.784 91.9924 39.1154 91.9084 39.554H90.7044C90.7511 39.05 90.9191 38.6254 91.2084 38.28C91.5071 37.9347 91.8757 37.6734 92.3144 37.496C92.7531 37.3094 93.2197 37.216 93.7144 37.216C94.6851 37.216 95.413 37.4774 95.8984 38C96.3931 38.5134 96.6404 39.1994 96.6404 40.058V44.328H95.5904L95.5204 43.082C95.3244 43.474 95.0351 43.81 94.6524 44.09C94.2791 44.3607 93.7751 44.496 93.1404 44.496ZM93.3224 43.502C93.7704 43.502 94.1531 43.3854 94.4704 43.152C94.7971 42.9187 95.0444 42.6154 95.2124 42.242C95.3804 41.8687 95.4644 41.4767 95.4644 41.066V41.052H93.6864C92.9957 41.052 92.5057 41.1734 92.2164 41.416C91.9364 41.6494 91.7964 41.9434 91.7964 42.298C91.7964 42.662 91.9271 42.956 92.1884 43.18C92.4591 43.3947 92.8371 43.502 93.3224 43.502Z" fill="#2C2C2C" fill-opacity="0.5"/>
<path d="M101.065 44.496C100.234 44.496 99.5433 44.286 98.9926 43.866C98.4419 43.446 98.1199 42.8767 98.0266 42.158H99.2306C99.3053 42.522 99.4966 42.8394 99.8046 43.11C100.122 43.3714 100.547 43.502 101.079 43.502C101.573 43.502 101.937 43.3994 102.171 43.194C102.404 42.9794 102.521 42.7274 102.521 42.438C102.521 42.018 102.367 41.738 102.059 41.598C101.76 41.458 101.335 41.332 100.785 41.22C100.411 41.1454 100.038 41.038 99.6646 40.898C99.2913 40.758 98.9786 40.562 98.7266 40.31C98.4746 40.0487 98.3486 39.708 98.3486 39.288C98.3486 38.6814 98.5726 38.1867 99.0206 37.804C99.4779 37.412 100.094 37.216 100.869 37.216C101.606 37.216 102.208 37.4027 102.675 37.776C103.151 38.14 103.426 38.6627 103.501 39.344H102.339C102.292 38.9894 102.138 38.714 101.877 38.518C101.625 38.3127 101.284 38.21 100.855 38.21C100.435 38.21 100.108 38.2987 99.8746 38.476C99.6506 38.6534 99.5386 38.8867 99.5386 39.176C99.5386 39.456 99.6833 39.6754 99.9726 39.834C100.271 39.9927 100.673 40.128 101.177 40.24C101.606 40.3334 102.012 40.45 102.395 40.59C102.787 40.7207 103.104 40.9214 103.347 41.192C103.599 41.4534 103.725 41.836 103.725 42.34C103.734 42.9654 103.496 43.4834 103.011 43.894C102.535 44.2954 101.886 44.496 101.065 44.496Z" fill="#2C2C2C" fill-opacity="0.5"/>
<path d="M108.065 44.496C107.234 44.496 106.543 44.286 105.993 43.866C105.442 43.446 105.12 42.8767 105.027 42.158H106.231C106.305 42.522 106.497 42.8394 106.805 43.11C107.122 43.3714 107.547 43.502 108.079 43.502C108.573 43.502 108.937 43.3994 109.171 43.194C109.404 42.9794 109.521 42.7274 109.521 42.438C109.521 42.018 109.367 41.738 109.059 41.598C108.76 41.458 108.335 41.332 107.785 41.22C107.411 41.1454 107.038 41.038 106.665 40.898C106.291 40.758 105.979 40.562 105.727 40.31C105.475 40.0487 105.349 39.708 105.349 39.288C105.349 38.6814 105.573 38.1867 106.021 37.804C106.478 37.412 107.094 37.216 107.869 37.216C108.606 37.216 109.208 37.4027 109.675 37.776C110.151 38.14 110.426 38.6627 110.501 39.344H109.339C109.292 38.9894 109.138 38.714 108.877 38.518C108.625 38.3127 108.284 38.21 107.855 38.21C107.435 38.21 107.108 38.2987 106.875 38.476C106.651 38.6534 106.539 38.8867 106.539 39.176C106.539 39.456 106.683 39.6754 106.973 39.834C107.271 39.9927 107.673 40.128 108.177 40.24C108.606 40.3334 109.012 40.45 109.395 40.59C109.787 40.7207 110.104 40.9214 110.347 41.192C110.599 41.4534 110.725 41.836 110.725 42.34C110.734 42.9654 110.496 43.4834 110.011 43.894C109.535 44.2954 108.886 44.496 108.065 44.496Z" fill="#2C2C2C" fill-opacity="0.5"/>
<path d="M113.545 44.328L111.515 37.384H112.691L114.161 42.83L115.785 37.384H117.115L118.753 42.83L120.209 37.384H121.399L119.369 44.328H118.165L116.457 38.602L114.749 44.328H113.545Z" fill="#2C2C2C" fill-opacity="0.5"/>
<path d="M125.604 44.496C124.95 44.496 124.362 44.3467 123.84 44.048C123.317 43.7494 122.902 43.3294 122.594 42.788C122.295 42.2374 122.146 41.5934 122.146 40.856C122.146 40.1187 122.3 39.4794 122.608 38.938C122.916 38.3874 123.331 37.9627 123.854 37.664C124.386 37.3654 124.978 37.216 125.632 37.216C126.285 37.216 126.873 37.3654 127.396 37.664C127.918 37.9627 128.329 38.3874 128.628 38.938C128.936 39.4794 129.09 40.1187 129.09 40.856C129.09 41.5934 128.936 42.2374 128.628 42.788C128.32 43.3294 127.9 43.7494 127.368 44.048C126.845 44.3467 126.257 44.496 125.604 44.496ZM125.604 43.488C126.005 43.488 126.378 43.39 126.724 43.194C127.069 42.998 127.349 42.704 127.564 42.312C127.778 41.92 127.886 41.4347 127.886 40.856C127.886 40.2774 127.778 39.792 127.564 39.4C127.358 39.008 127.083 38.714 126.738 38.518C126.392 38.322 126.024 38.224 125.632 38.224C125.23 38.224 124.857 38.322 124.512 38.518C124.166 38.714 123.886 39.008 123.672 39.4C123.457 39.792 123.35 40.2774 123.35 40.856C123.35 41.4347 123.457 41.92 123.672 42.312C123.886 42.704 124.162 42.998 124.498 43.194C124.843 43.39 125.212 43.488 125.604 43.488Z" fill="#2C2C2C" fill-opacity="0.5"/>
<path d="M130.725 44.328V37.384H131.789L131.887 38.714C132.102 38.2567 132.428 37.8927 132.867 37.622C133.306 37.3514 133.847 37.216 134.491 37.216V38.448H134.169C133.758 38.448 133.38 38.5227 133.035 38.672C132.69 38.812 132.414 39.0547 132.209 39.4C132.004 39.7454 131.901 40.2214 131.901 40.828V44.328H130.725Z" fill="#2C2C2C" fill-opacity="0.5"/>
<path d="M138.701 44.496C138.01 44.496 137.404 44.3374 136.881 44.02C136.368 43.7027 135.966 43.2687 135.677 42.718C135.397 42.1674 135.257 41.542 135.257 40.842C135.257 40.142 135.402 39.5214 135.691 38.98C135.98 38.4294 136.382 38 136.895 37.692C137.408 37.3747 138.015 37.216 138.715 37.216C139.284 37.216 139.788 37.3327 140.227 37.566C140.666 37.7994 141.006 38.126 141.249 38.546V34.248H142.425V44.328H141.361L141.249 43.18C141.025 43.516 140.703 43.8194 140.283 44.09C139.863 44.3607 139.336 44.496 138.701 44.496ZM138.827 43.474C139.294 43.474 139.704 43.3667 140.059 43.152C140.423 42.928 140.703 42.62 140.899 42.228C141.104 41.836 141.207 41.3787 141.207 40.856C141.207 40.3334 141.104 39.876 140.899 39.484C140.703 39.092 140.423 38.7887 140.059 38.574C139.704 38.35 139.294 38.238 138.827 38.238C138.37 38.238 137.959 38.35 137.595 38.574C137.24 38.7887 136.96 39.092 136.755 39.484C136.559 39.876 136.461 40.3334 136.461 40.856C136.461 41.3787 136.559 41.836 136.755 42.228C136.96 42.62 137.24 42.928 137.595 43.152C137.959 43.3667 138.37 43.474 138.827 43.474Z" fill="#2C2C2C" fill-opacity="0.5"/>
</svg>
