<svg width="24" height="24" viewBox="0 0 24 24" fill="none" xmlns="http://www.w3.org/2000/svg">
<path d="M21.5999 6.9C21.5999 6.66131 21.5051 6.43239 21.3363 6.2636C21.1675 6.09482 20.9386 6 20.6999 6H3.2999C3.06121 6 2.83229 6.09482 2.66351 6.2636C2.49472 6.43239 2.3999 6.66131 2.3999 6.9C2.3999 7.13869 2.49472 7.36761 2.66351 7.5364C2.83229 7.70518 3.06121 7.8 3.2999 7.8H20.6999C20.9386 7.8 21.1675 7.70518 21.3363 7.5364C21.5051 7.36761 21.5999 7.13869 21.5999 6.9ZM21.5999 10.5C21.5999 10.2613 21.5051 10.0324 21.3363 9.8636C21.1675 9.69482 20.9386 9.6 20.6999 9.6H3.2999C3.06121 9.6 2.83229 9.69482 2.66351 9.8636C2.49472 10.0324 2.3999 10.2613 2.3999 10.5C2.3999 10.7387 2.49472 10.9676 2.66351 11.1364C2.83229 11.3052 3.06121 11.4 3.2999 11.4H14.6471C15.5106 11.0035 16.4497 10.7988 17.3999 10.8C18.3501 10.7988 19.2892 11.0035 20.1527 11.4H20.6999C20.9386 11.4 21.1675 11.3052 21.3363 11.1364C21.5051 10.9676 21.5999 10.7387 21.5999 10.5ZM10.9079 18.6H3.2999C3.06121 18.6 2.83229 18.5052 2.66351 18.3364C2.49472 18.1676 2.3999 17.9387 2.3999 17.7C2.3999 17.4613 2.49472 17.2324 2.66351 17.0636C2.83229 16.8948 3.06121 16.8 3.2999 16.8H10.8263C10.7725 17.401 10.7992 18.0065 10.9079 18.6ZM11.2511 15H3.2999C3.06121 15 2.83229 14.9052 2.66351 14.7364C2.49472 14.5676 2.3999 14.3387 2.3999 14.1C2.3999 13.8613 2.49472 13.6324 2.66351 13.4636C2.83229 13.2948 3.06121 13.2 3.2999 13.2H12.3083C11.8621 13.74 11.5049 14.3476 11.2499 15M22.7999 17.4C22.7999 18.8322 22.231 20.2057 21.2183 21.2184C20.2056 22.2311 18.8321 22.8 17.3999 22.8C15.9677 22.8 14.5942 22.2311 13.5815 21.2184C12.5688 20.2057 11.9999 18.8322 11.9999 17.4C11.9999 15.9678 12.5688 14.5943 13.5815 13.5816C14.5942 12.5689 15.9677 12 17.3999 12C18.8321 12 20.2056 12.5689 21.2183 13.5816C22.231 14.5943 22.7999 15.9678 22.7999 17.4ZM17.3999 18.2484L18.7751 19.6248C18.8309 19.6806 18.8971 19.7248 18.97 19.755C19.0429 19.7852 19.121 19.8008 19.1999 19.8008C19.2788 19.8008 19.3569 19.7852 19.4298 19.755C19.5027 19.7248 19.5689 19.6806 19.6247 19.6248C19.6805 19.569 19.7247 19.5028 19.7549 19.4299C19.7851 19.357 19.8007 19.2789 19.8007 19.2C19.8007 19.1211 19.7851 19.043 19.7549 18.9701C19.7247 18.8972 19.6805 18.831 19.6247 18.7752L18.2483 17.4L19.6247 16.0248C19.7374 15.9121 19.8007 15.7593 19.8007 15.6C19.8007 15.4407 19.7374 15.2879 19.6247 15.1752C19.512 15.0625 19.3592 14.9992 19.1999 14.9992C19.0406 14.9992 18.8878 15.0625 18.7751 15.1752L17.3999 16.5516L16.0247 15.1752C15.912 15.0625 15.7592 14.9992 15.5999 14.9992C15.4406 14.9992 15.2878 15.0625 15.1751 15.1752C15.0624 15.2879 14.9991 15.4407 14.9991 15.6C14.9991 15.7593 15.0624 15.9121 15.1751 16.0248L16.5515 17.4L15.1751 18.7752C15.1193 18.831 15.0751 18.8972 15.0449 18.9701C15.0147 19.043 14.9991 19.1211 14.9991 19.2C14.9991 19.2789 15.0147 19.357 15.0449 19.4299C15.0751 19.5028 15.1193 19.569 15.1751 19.6248C15.2309 19.6806 15.2971 19.7248 15.37 19.755C15.4429 19.7852 15.521 19.8008 15.5999 19.8008C15.6788 19.8008 15.7569 19.7852 15.8298 19.755C15.9027 19.7248 15.9689 19.6806 16.0247 19.6248L17.3999 18.2484Z" fill="white"/>
</svg>
