<svg width="317" height="120" viewBox="0 0 317 120" fill="none" xmlns="http://www.w3.org/2000/svg">
<path d="M154.25 60.0003H158.417C159.522 60.0003 160.582 59.5613 161.363 58.7799C162.144 57.9985 162.583 56.9387 162.583 55.8337C162.583 54.7286 162.144 53.6688 161.363 52.8874C160.582 52.106 159.522 51.667 158.417 51.667H154.25V68.3337M183.417 60.0003H189.667M191.75 51.667H183.417V68.3337M168.833 51.667V68.3337H173C174.105 68.3337 175.165 67.8947 175.946 67.1133C176.728 66.3319 177.167 65.2721 177.167 64.167V55.8337C177.167 54.7286 176.728 53.6688 175.946 52.8874C175.165 52.106 174.105 51.667 173 51.667H168.833Z" stroke="#2C2C2C" stroke-width="2" stroke-linecap="round" stroke-linejoin="round"/>
<path d="M124 68H138V66H124V68ZM124 58H128V64H134V58H138L131 51L124 58Z" fill="#2C2C2C"/>
<rect x="0.5" y="0.5" width="316" height="118" stroke="#D9D9D9"/>
</svg>
