<svg width="24" height="24" viewBox="0 0 24 24" fill="none" xmlns="http://www.w3.org/2000/svg">
<path d="M21.6 6.9C21.6 6.66131 21.5052 6.43239 21.3364 6.2636C21.1676 6.09482 20.9387 6 20.7 6H3.29999C3.0613 6 2.83238 6.09482 2.6636 6.2636C2.49481 6.43239 2.39999 6.66131 2.39999 6.9C2.39999 7.13869 2.49481 7.36761 2.6636 7.5364C2.83238 7.70518 3.0613 7.8 3.29999 7.8H20.7C20.9387 7.8 21.1676 7.70518 21.3364 7.5364C21.5052 7.36761 21.6 7.13869 21.6 6.9ZM21.6 10.5C21.6 10.2613 21.5052 10.0324 21.3364 9.8636C21.1676 9.69482 20.9387 9.6 20.7 9.6H3.29999C3.0613 9.6 2.83238 9.69482 2.6636 9.8636C2.49481 10.0324 2.39999 10.2613 2.39999 10.5C2.39999 10.7387 2.49481 10.9676 2.6636 11.1364C2.83238 11.3052 3.0613 11.4 3.29999 11.4H14.6472C15.5107 11.0035 16.4498 10.7988 17.4 10.8C18.3502 10.7988 19.2893 11.0035 20.1528 11.4H20.7C20.9387 11.4 21.1676 11.3052 21.3364 11.1364C21.5052 10.9676 21.6 10.7387 21.6 10.5ZM10.908 18.6H3.29999C3.0613 18.6 2.83238 18.5052 2.6636 18.3364C2.49481 18.1676 2.39999 17.9387 2.39999 17.7C2.39999 17.4613 2.49481 17.2324 2.6636 17.0636C2.83238 16.8948 3.0613 16.8 3.29999 16.8H10.8264C10.7726 17.401 10.7993 18.0065 10.908 18.6ZM11.2512 15H3.29999C3.0613 15 2.83238 14.9052 2.6636 14.7364C2.49481 14.5676 2.39999 14.3387 2.39999 14.1C2.39999 13.8613 2.49481 13.6324 2.6636 13.4636C2.83238 13.2948 3.0613 13.2 3.29999 13.2H12.3084C11.8622 13.74 11.505 14.3476 11.25 15M22.8 17.4C22.8 18.8322 22.2311 20.2057 21.2184 21.2184C20.2057 22.2311 18.8322 22.8 17.4 22.8C15.9678 22.8 14.5943 22.2311 13.5816 21.2184C12.5689 20.2057 12 18.8322 12 17.4C12 15.9678 12.5689 14.5943 13.5816 13.5816C14.5943 12.5689 15.9678 12 17.4 12C18.8322 12 20.2057 12.5689 21.2184 13.5816C22.2311 14.5943 22.8 15.9678 22.8 17.4ZM17.4 18.2484L18.7752 19.6248C18.831 19.6806 18.8972 19.7248 18.9701 19.755C19.043 19.7852 19.1211 19.8008 19.2 19.8008C19.2789 19.8008 19.357 19.7852 19.4299 19.755C19.5028 19.7248 19.569 19.6806 19.6248 19.6248C19.6806 19.569 19.7248 19.5028 19.755 19.4299C19.7852 19.357 19.8008 19.2789 19.8008 19.2C19.8008 19.1211 19.7852 19.043 19.755 18.9701C19.7248 18.8972 19.6806 18.831 19.6248 18.7752L18.2484 17.4L19.6248 16.0248C19.7375 15.9121 19.8008 15.7593 19.8008 15.6C19.8008 15.4407 19.7375 15.2879 19.6248 15.1752C19.5121 15.0625 19.3593 14.9992 19.2 14.9992C19.0407 14.9992 18.8879 15.0625 18.7752 15.1752L17.4 16.5516L16.0248 15.1752C15.9121 15.0625 15.7593 14.9992 15.6 14.9992C15.4407 14.9992 15.2879 15.0625 15.1752 15.1752C15.0625 15.2879 14.9992 15.4407 14.9992 15.6C14.9992 15.7593 15.0625 15.9121 15.1752 16.0248L16.5516 17.4L15.1752 18.7752C15.1194 18.831 15.0752 18.8972 15.045 18.9701C15.0148 19.043 14.9992 19.1211 14.9992 19.2C14.9992 19.2789 15.0148 19.357 15.045 19.4299C15.0752 19.5028 15.1194 19.569 15.1752 19.6248C15.231 19.6806 15.2972 19.7248 15.3701 19.755C15.443 19.7852 15.5211 19.8008 15.6 19.8008C15.6789 19.8008 15.757 19.7852 15.8299 19.755C15.9028 19.7248 15.969 19.6806 16.0248 19.6248L17.4 18.2484Z" fill="#2C2C2C" fill-opacity="0.5"/>
</svg>
