<svg width="24" height="24" viewBox="0 0 24 24" fill="none" xmlns="http://www.w3.org/2000/svg">
<g clip-path="url(#clip0_221_308)">
<path d="M22.5 14.9998C22.5015 14.2488 22.315 13.5094 21.9576 12.8489C21.6001 12.1884 21.083 11.6279 20.4535 11.2184C19.8239 10.8089 19.1019 10.5635 18.3532 10.5046C17.6045 10.4457 16.8529 10.575 16.167 10.8809C15.4812 11.1869 14.8827 11.6596 14.4263 12.256C13.9699 12.8524 13.67 13.5536 13.554 14.2956C13.438 15.0375 13.5095 15.7968 13.7621 16.5041C14.0147 17.2113 14.4402 17.8441 15 18.3448V23.9998L18 22.5793L21 23.9998V18.3448C21.4715 17.9244 21.8489 17.409 22.1074 16.8326C22.3659 16.2561 22.4997 15.6316 22.5 14.9998ZM19.5 21.6298L18 20.9196L16.5 21.6298V19.2373C17.4694 19.5874 18.5306 19.5874 19.5 19.2373V21.6298ZM18 17.9998C17.4066 17.9998 16.8266 17.8239 16.3333 17.4942C15.8399 17.1646 15.4554 16.696 15.2284 16.1479C15.0013 15.5997 14.9419 14.9965 15.0576 14.4145C15.1734 13.8326 15.4591 13.2981 15.8787 12.8785C16.2982 12.4589 16.8328 12.1732 17.4147 12.0575C17.9967 11.9417 18.5999 12.0011 19.148 12.2282C19.6962 12.4552 20.1648 12.8398 20.4944 13.3331C20.824 13.8265 21 14.4065 21 14.9998C20.999 15.7952 20.6826 16.5576 20.1202 17.12C19.5578 17.6824 18.7953 17.9988 18 17.9998Z" fill="#2C2C2C" fill-opacity="0.5"/>
<path d="M18.75 3.75H16.5V3C16.4988 2.60254 16.3404 2.2217 16.0593 1.94065C15.7783 1.6596 15.3975 1.50119 15 1.5H9C8.60254 1.50119 8.2217 1.6596 7.94065 1.94065C7.6596 2.2217 7.50119 2.60254 7.5 3V3.75H5.25C4.85254 3.75119 4.4717 3.9096 4.19065 4.19065C3.9096 4.4717 3.75119 4.85254 3.75 5.25V21C3.75119 21.3975 3.9096 21.7783 4.19065 22.0593C4.4717 22.3404 4.85254 22.4988 5.25 22.5H12V21H5.25V5.25H7.5V7.5H16.5V5.25H18.75V9H20.25V5.25C20.2488 4.85254 20.0904 4.4717 19.8093 4.19065C19.5283 3.9096 19.1475 3.75119 18.75 3.75ZM15 6H9V3H15V6Z" fill="#2C2C2C" fill-opacity="0.5"/>
</g>
<defs>
<clipPath id="clip0_221_308">
<rect width="24" height="24" fill="white"/>
</clipPath>
</defs>
</svg>
