<svg width="33" height="11" viewBox="0 0 33 11" fill="none" xmlns="http://www.w3.org/2000/svg">
<path d="M0 10.2491V0.284697H6.16369V1.2669H1.19573V4.7402H5.73664V5.70817H1.19573V9.26689H6.16369V10.2491H0Z" fill="#2C2C2C"/>
<path d="M7.96373 10.2491V3.18861H9.04558L9.13099 4.21351C9.35874 3.83392 9.66242 3.53973 10.042 3.33095C10.4216 3.12218 10.8487 3.01779 11.3232 3.01779C11.8831 3.01779 12.3623 3.13167 12.7609 3.35942C13.1689 3.58718 13.4821 3.93356 13.7004 4.39857C13.9471 3.97152 14.284 3.63463 14.711 3.38789C15.1476 3.14116 15.6173 3.01779 16.1203 3.01779C16.9649 3.01779 17.6387 3.27401 18.1416 3.78647C18.6446 4.28943 18.8961 5.06761 18.8961 6.12098V10.2491H17.7146V6.2491C17.7146 5.51838 17.5675 4.96796 17.2733 4.59786C16.9791 4.22775 16.5568 4.0427 16.0064 4.0427C15.437 4.0427 14.9625 4.26571 14.5829 4.71173C14.2128 5.14827 14.0278 5.7746 14.0278 6.59073V10.2491H12.832V6.2491C12.832 5.51838 12.685 4.96796 12.3908 4.59786C12.0966 4.22775 11.6743 4.0427 11.1239 4.0427C10.564 4.0427 10.0942 4.26571 9.71461 4.71173C9.34451 5.14827 9.15946 5.7746 9.15946 6.59073V10.2491H7.96373Z" fill="#2C2C2C"/>
<path d="M23.046 10.4199C22.4576 10.4199 21.9689 10.3203 21.5798 10.121C21.1907 9.92169 20.9013 9.65597 20.7115 9.32382C20.5217 8.99168 20.4268 8.63106 20.4268 8.24198C20.4268 7.52074 20.702 6.96558 21.2524 6.5765C21.8028 6.18741 22.5525 5.99287 23.5015 5.99287H25.409V5.90746C25.409 5.29062 25.2477 4.82561 24.925 4.51245C24.6023 4.18979 24.1705 4.02846 23.6296 4.02846C23.1646 4.02846 22.7613 4.14709 22.4197 4.38433C22.0875 4.61209 21.8787 4.94898 21.7933 5.39501H20.5691C20.6166 4.88255 20.7874 4.45076 21.0816 4.09964C21.3853 3.74851 21.7601 3.48279 22.2061 3.30248C22.6522 3.11269 23.1267 3.01779 23.6296 3.01779C24.6166 3.01779 25.3568 3.2835 25.8503 3.81494C26.3532 4.33688 26.6047 5.03439 26.6047 5.90746V10.2491H25.5371L25.4659 8.98219C25.2666 9.38076 24.9724 9.7224 24.5834 10.0071C24.2038 10.2823 23.6913 10.4199 23.046 10.4199ZM23.231 9.40923C23.6866 9.40923 24.0756 9.29061 24.3983 9.05336C24.7305 8.81612 24.9819 8.50769 25.1528 8.1281C25.3236 7.7485 25.409 7.34993 25.409 6.93237V6.91814H23.6012C22.8989 6.91814 22.4007 7.0415 22.1065 7.28824C21.8218 7.52549 21.6794 7.82442 21.6794 8.18504C21.6794 8.55514 21.8123 8.85408 22.078 9.08183C22.3532 9.3001 22.7376 9.40923 23.231 9.40923Z" fill="#2C2C2C"/>
<path d="M29.1245 1.62277C28.8872 1.62277 28.688 1.54685 28.5266 1.39501C28.3748 1.23369 28.2989 1.0344 28.2989 0.797151C28.2989 0.569394 28.3748 0.379596 28.5266 0.227757C28.688 0.0759189 28.8872 0 29.1245 0C29.3523 0 29.5468 0.0759189 29.7081 0.227757C29.8695 0.379596 29.9501 0.569394 29.9501 0.797151C29.9501 1.0344 29.8695 1.23369 29.7081 1.39501C29.5468 1.54685 29.3523 1.62277 29.1245 1.62277ZM28.5266 10.2491V3.18861H29.7224V10.2491H28.5266Z" fill="#2C2C2C"/>
<path d="M31.8043 10.2491V0H33V10.2491H31.8043Z" fill="#2C2C2C"/>
</svg>
