<svg width="103" height="14" viewBox="0 0 103 14" fill="none" xmlns="http://www.w3.org/2000/svg">
<path d="M0 10.116V0.281H6.08366V1.25045H1.1802V4.67866H5.66216V5.63406H1.1802V9.14656H6.08366V10.116H0Z" fill="#2C2C2C" fill-opacity="0.5"/>
<path d="M7.86033 10.116V3.1472H8.92813L8.99838 4.39766C9.22318 3.95742 9.54633 3.61086 9.96783 3.35795C10.3893 3.10505 10.867 2.9786 11.4009 2.9786C12.2252 2.9786 12.8809 3.2315 13.3679 3.73731C13.8644 4.23374 14.1126 5.00181 14.1126 6.04151V10.116H12.9324V6.16796C12.9324 4.71612 12.3329 3.99021 11.134 3.99021C10.5345 3.99021 10.0334 4.21032 9.63063 4.65056C9.23723 5.08142 9.04053 5.69963 9.04053 6.50516V10.116H7.86033Z" fill="#2C2C2C" fill-opacity="0.5"/>
<path d="M18.6545 10.116C18.0175 10.116 17.5164 9.96146 17.1511 9.65236C16.7858 9.34326 16.6032 8.78595 16.6032 7.98041V4.14476H15.3949V3.1472H16.6032L16.7577 1.47525H17.7834V3.1472H19.8347V4.14476H17.7834V7.98041C17.7834 8.42065 17.8724 8.72038 18.0503 8.87961C18.2283 9.02948 18.5421 9.10441 18.9917 9.10441H19.7223V10.116H18.6545Z" fill="#2C2C2C" fill-opacity="0.5"/>
<path d="M24.2751 10.2846C23.6101 10.2846 23.02 10.1347 22.5048 9.83502C21.9897 9.52592 21.5822 9.09973 21.2825 8.55646C20.9921 8.0132 20.8469 7.37158 20.8469 6.63161C20.8469 5.90101 20.9921 5.26407 21.2825 4.72081C21.5729 4.16817 21.9756 3.74199 22.4908 3.44225C23.0153 3.13315 23.6195 2.9786 24.3032 2.9786C24.9776 2.9786 25.5584 3.13315 26.0454 3.44225C26.5419 3.74199 26.9212 4.14007 27.1835 4.63651C27.4458 5.13294 27.5769 5.66684 27.5769 6.23821C27.5769 6.34124 27.5722 6.44428 27.5628 6.54731C27.5628 6.65034 27.5628 6.76743 27.5628 6.89856H22.0131C22.0412 7.43246 22.163 7.87738 22.3784 8.23331C22.6032 8.57988 22.8795 8.84215 23.2073 9.02011C23.5445 9.19808 23.9005 9.28706 24.2751 9.28706C24.7622 9.28706 25.1697 9.17466 25.4975 8.94986C25.8253 8.72506 26.0642 8.42065 26.214 8.03661H27.3802C27.1929 8.68291 26.8322 9.2215 26.2983 9.65236C25.7738 10.0739 25.0994 10.2846 24.2751 10.2846ZM24.2751 3.97616C23.7131 3.97616 23.212 4.14944 22.7718 4.49601C22.3409 4.83321 22.0927 5.32964 22.0271 5.98531H26.4107C26.3826 5.35774 26.1672 4.86599 25.7644 4.51006C25.3617 4.15412 24.8652 3.97616 24.2751 3.97616Z" fill="#2C2C2C" fill-opacity="0.5"/>
<path d="M29.1412 10.116V3.1472H30.209L30.3073 4.48196C30.5228 4.02299 30.8506 3.65769 31.2908 3.38606C31.7311 3.11442 32.2743 2.9786 32.9206 2.9786V4.21501H32.5975C32.1853 4.21501 31.806 4.28994 31.4594 4.43981C31.1129 4.58031 30.8365 4.82384 30.6305 5.17041C30.4244 5.51697 30.3214 5.99468 30.3214 6.60351V10.116H29.1412Z" fill="#2C2C2C" fill-opacity="0.5"/>
<path d="M38.7223 13.207L40.4504 9.44161H40.043L37.2751 3.1472H38.5537L40.8579 8.57051L43.3026 3.1472H44.525L39.9587 13.207H38.7223Z" fill="#2C2C2C" fill-opacity="0.5"/>
<path d="M48.2874 10.2846C47.6317 10.2846 47.0416 10.1347 46.5171 9.83502C45.9926 9.53528 45.5757 9.11378 45.2666 8.57051C44.9669 8.01788 44.817 7.37158 44.817 6.63161C44.817 5.89164 44.9716 5.25002 45.2807 4.70676C45.5898 4.15412 46.0066 3.72794 46.5311 3.42821C47.065 3.12847 47.6598 2.9786 48.3155 2.9786C48.9712 2.9786 49.5613 3.12847 50.0858 3.42821C50.6103 3.72794 51.0225 4.15412 51.3222 4.70676C51.6313 5.25002 51.7859 5.89164 51.7859 6.63161C51.7859 7.37158 51.6313 8.01788 51.3222 8.57051C51.0131 9.11378 50.5916 9.53528 50.0577 9.83502C49.5332 10.1347 48.9431 10.2846 48.2874 10.2846ZM48.2874 9.27301C48.6902 9.27301 49.0648 9.17466 49.4114 8.97796C49.758 8.78126 50.039 8.48621 50.2544 8.09281C50.4698 7.69941 50.5775 7.21234 50.5775 6.63161C50.5775 6.05088 50.4698 5.56381 50.2544 5.17041C50.0483 4.77701 49.772 4.48196 49.4254 4.28526C49.0789 4.08856 48.7089 3.99021 48.3155 3.99021C47.9127 3.99021 47.5381 4.08856 47.1915 4.28526C46.8449 4.48196 46.5639 4.77701 46.3485 5.17041C46.1331 5.56381 46.0253 6.05088 46.0253 6.63161C46.0253 7.21234 46.1331 7.69941 46.3485 8.09281C46.5639 8.48621 46.8402 8.78126 47.1774 8.97796C47.524 9.17466 47.894 9.27301 48.2874 9.27301Z" fill="#2C2C2C" fill-opacity="0.5"/>
<path d="M55.9699 10.2846C55.1456 10.2846 54.49 10.0364 54.0029 9.53996C53.5158 9.03416 53.2723 8.26141 53.2723 7.22171V3.1472H54.4525V7.09526C54.4525 8.5471 55.0473 9.27301 56.2369 9.27301C56.8457 9.27301 57.3468 9.05758 57.7402 8.62671C58.143 8.18648 58.3444 7.5636 58.3444 6.75806V3.1472H59.5246V10.116H58.4568L58.3725 8.86556C58.157 9.3058 57.8339 9.65237 57.403 9.90527C56.9815 10.1582 56.5038 10.2846 55.9699 10.2846Z" fill="#2C2C2C" fill-opacity="0.5"/>
<path d="M61.4672 10.116V3.1472H62.535L62.6333 4.48196C62.8488 4.02299 63.1766 3.65769 63.6168 3.38606C64.0571 3.11442 64.6004 2.9786 65.2466 2.9786V4.21501H64.9235C64.5114 4.21501 64.132 4.28994 63.7854 4.43981C63.4389 4.58031 63.1626 4.82384 62.9565 5.17041C62.7504 5.51697 62.6474 5.99468 62.6474 6.60351V10.116H61.4672Z" fill="#2C2C2C" fill-opacity="0.5"/>
<path d="M73.4228 10.2846C72.7577 10.2846 72.1676 10.1347 71.6525 9.83502C71.1373 9.52592 70.7299 9.09973 70.4301 8.55646C70.1397 8.0132 69.9946 7.37158 69.9946 6.63161C69.9946 5.90101 70.1397 5.26407 70.4301 4.72081C70.7205 4.16817 71.1232 3.74199 71.6384 3.44225C72.1629 3.13315 72.7671 2.9786 73.4509 2.9786C74.1253 2.9786 74.706 3.13315 75.1931 3.44225C75.6895 3.74199 76.0689 4.14007 76.3311 4.63651C76.5934 5.13294 76.7245 5.66684 76.7245 6.23821C76.7245 6.34124 76.7198 6.44428 76.7105 6.54731C76.7105 6.65034 76.7105 6.76743 76.7105 6.89856H71.1607C71.1888 7.43246 71.3106 7.87738 71.526 8.23331C71.7508 8.57988 72.0271 8.84215 72.355 9.02011C72.6922 9.19808 73.0481 9.28706 73.4228 9.28706C73.9098 9.28706 74.3173 9.17466 74.6451 8.94986C74.973 8.72506 75.2118 8.42065 75.3617 8.03661H76.5278C76.3405 8.68291 75.9799 9.2215 75.446 9.65236C74.9214 10.0739 74.247 10.2846 73.4228 10.2846ZM73.4228 3.97616C72.8608 3.97616 72.3596 4.14944 71.9194 4.49601C71.4885 4.83321 71.2403 5.32964 71.1748 5.98531H75.5584C75.5303 5.35774 75.3148 4.86599 74.9121 4.51006C74.5093 4.15412 74.0129 3.97616 73.4228 3.97616Z" fill="#2C2C2C" fill-opacity="0.5"/>
<path d="M78.2888 10.116V3.1472H79.3566L79.4409 4.15881C79.6657 3.78414 79.9654 3.49377 80.3401 3.2877C80.7148 3.08164 81.1363 2.9786 81.6046 2.9786C82.1572 2.9786 82.6303 3.091 83.0237 3.3158C83.4264 3.54061 83.7355 3.88249 83.951 4.34146C84.1945 3.91996 84.527 3.58744 84.9485 3.34391C85.3794 3.10037 85.843 2.9786 86.3395 2.9786C87.1731 2.9786 87.8381 3.2315 88.3346 3.73731C88.831 4.23374 89.0792 5.00181 89.0792 6.04151V10.116H87.9131V6.16796C87.9131 5.44673 87.7679 4.90346 87.4775 4.53816C87.1871 4.17286 86.7703 3.99021 86.2271 3.99021C85.6651 3.99021 85.1967 4.21032 84.8221 4.65056C84.4568 5.08142 84.2741 5.69963 84.2741 6.50516V10.116H83.0939V6.16796C83.0939 5.44673 82.9487 4.90346 82.6584 4.53816C82.368 4.17286 81.9512 3.99021 81.4079 3.99021C80.8553 3.99021 80.3916 4.21032 80.017 4.65056C79.6517 5.08142 79.469 5.69963 79.469 6.50516V10.116H78.2888Z" fill="#2C2C2C" fill-opacity="0.5"/>
<path d="M93.1752 10.2846C92.5945 10.2846 92.1121 10.1863 91.7281 9.98957C91.344 9.79286 91.0584 9.5306 90.871 9.20276C90.6837 8.87493 90.59 8.519 90.59 8.13496C90.59 7.4231 90.8617 6.87514 91.4049 6.49111C91.9482 6.10708 92.6882 5.91506 93.6248 5.91506H95.5075V5.83076C95.5075 5.22192 95.3483 4.76296 95.0298 4.45386C94.7114 4.13539 94.2852 3.97616 93.7513 3.97616C93.2923 3.97616 92.8942 4.09324 92.557 4.32741C92.2292 4.55221 92.0231 4.88472 91.9388 5.32496H90.7305C90.7774 4.81916 90.946 4.39297 91.2363 4.04641C91.5361 3.69984 91.906 3.43757 92.3463 3.2596C92.7865 3.07227 93.2548 2.9786 93.7513 2.9786C94.7254 2.9786 95.456 3.24087 95.9431 3.76541C96.4395 4.28057 96.6877 4.96902 96.6877 5.83076V10.116H95.634L95.5637 8.86556C95.367 9.25896 95.0767 9.59617 94.6926 9.87717C94.318 10.1488 93.8122 10.2846 93.1752 10.2846ZM93.3579 9.28706C93.8075 9.28706 94.1915 9.16998 94.51 8.93581C94.8378 8.70165 95.086 8.39723 95.2546 8.02256C95.4232 7.64789 95.5075 7.25449 95.5075 6.84236V6.82831H93.7232C93.03 6.82831 92.5383 6.95008 92.2479 7.19361C91.9669 7.42778 91.8264 7.72283 91.8264 8.07876C91.8264 8.44406 91.9576 8.73911 92.2198 8.96391C92.4915 9.17935 92.8708 9.28706 93.3579 9.28706Z" fill="#2C2C2C" fill-opacity="0.5"/>
<path d="M99.1748 1.6017C98.9406 1.6017 98.7439 1.52677 98.5847 1.3769C98.4349 1.21767 98.3599 1.02097 98.3599 0.786801C98.3599 0.562001 98.4349 0.374667 98.5847 0.2248C98.7439 0.0749332 98.9406 0 99.1748 0C99.3996 0 99.5916 0.0749332 99.7509 0.2248C99.9101 0.374667 99.9897 0.562001 99.9897 0.786801C99.9897 1.02097 99.9101 1.21767 99.7509 1.3769C99.5916 1.52677 99.3996 1.6017 99.1748 1.6017ZM98.5847 10.116V3.1472H99.7649V10.116H98.5847Z" fill="#2C2C2C" fill-opacity="0.5"/>
<path d="M101.82 10.116V0H103V10.116H101.82Z" fill="#2C2C2C" fill-opacity="0.5"/>
</svg>
